inDegrees=no
num_controls=7
num_derivatives=13
num_iterations=87
num_multipliers=7
num_parameters=0
num_slacks=7
num_states=26
objective=5.412125
objective_accelerations=0.545950
objective_balance=0.111730
objective_effort=0.394035
objective_height=4.339894
objective_ligament=0.020516
solver_duration=996.312724
status=Solve_Succeeded
success=true
DataType=double
version=3
OpenSimVersion=4.4-2022-07-23-0e9fedc
endheader
time	/jointset/ground_pelvis/pelvis_tilt/value	/jointset/ground_pelvis/pelvis_tx/value	/jointset/ground_pelvis/pelvis_ty/value	/jointset/hip_l/hip_flexion_l/value	/jointset/hip_l/hip_adduction_l/value	/jointset/hip_l/hip_rotation_l/value	/jointset/back/lumbar_extension/value	/jointset/patellofemoral_l/patellar_flexion_l/value	/jointset/knee_l/knee_flexion_l/value	/jointset/knee_l/knee_adduction_l/value	/jointset/knee_l/knee_rotation_l/value	/jointset/ankle_l/ankle_angle_l/value	/jointset/subtalar_l/subtalar_angle_l/value	/jointset/ground_pelvis/pelvis_tilt/speed	/jointset/ground_pelvis/pelvis_tx/speed	/jointset/ground_pelvis/pelvis_ty/speed	/jointset/hip_l/hip_flexion_l/speed	/jointset/hip_l/hip_adduction_l/speed	/jointset/hip_l/hip_rotation_l/speed	/jointset/back/lumbar_extension/speed	/jointset/patellofemoral_l/patellar_flexion_l/speed	/jointset/knee_l/knee_flexion_l/speed	/jointset/knee_l/knee_adduction_l/speed	/jointset/knee_l/knee_rotation_l/speed	/jointset/ankle_l/ankle_angle_l/speed	/jointset/subtalar_l/subtalar_angle_l/speed	/forceset/tau_hip_flexion_l	/forceset/tau_hip_adduction_l	/forceset/tau_hip_rotation_l	/forceset/tau_knee_flexion_l	/forceset/tau_ankle_angle_l	/forceset/tau_subtalar_angle_l	/forceset/tau_lumbar_extension	lambda_cid13_p0	lambda_cid13_p1	lambda_cid13_p2	lambda_cid13_p3	lambda_cid13_p4	lambda_cid13_p5	lambda_cid14_p0	/jointset/ground_pelvis/pelvis_tilt/accel	/jointset/ground_pelvis/pelvis_tx/accel	/jointset/ground_pelvis/pelvis_ty/accel	/jointset/hip_l/hip_flexion_l/accel	/jointset/hip_l/hip_adduction_l/accel	/jointset/hip_l/hip_rotation_l/accel	/jointset/back/lumbar_extension/accel	/jointset/patellofemoral_l/patellar_flexion_l/accel	/jointset/knee_l/knee_flexion_l/accel	/jointset/knee_l/knee_adduction_l/accel	/jointset/knee_l/knee_rotation_l/accel	/jointset/ankle_l/ankle_angle_l/accel	/jointset/subtalar_l/subtalar_angle_l/accel	gamma_cid13_p0	gamma_cid13_p1	gamma_cid13_p2	gamma_cid13_p3	gamma_cid13_p4	gamma_cid13_p5	gamma_cid14_p0
0.5	-0.401985658631859	-0.03990131097828899	0.7822349459887138	1.156828715049162	-0.3081290888407782	-0.04901120570030311	-0.3193231566161668	0.6712633280711875	0.6712633280713071	-0.1736878263433849	0.1744774544813967	0.0848312264847753	-0.0375323044997306	-0.6282579942415643	-0.2062496197803668	-0.4298376462012604	2.107092017068708	-0.03077352054094136	0.6110135181370111	-0.6352483944513478	1.737124735850208	1.737124735850269	-0.005249218980494257	0.0008085771779847505	0.3579763277045152	0.01927545218955428	-0.222896211046792	0.04083386977728634	-0.02078410308373751	-0.1968046852331389	0.09401239596355813	0.03031152825119302	0.2061005154329262	-8.665552448198428	-14.78066359482797	5.533396279517941	-0.210459390570727	-608.474151158781	-46.8166474915074	-29.31779976325425	0.4977866863245107	0.531808796540658	-0.2990225097762432	-1.328542364482636	0.5737992991621366	-0.3288500474188744	1.615129806761021	-1.076111800154659	-1.076111800154681	0.02125032633145861	-0.03421499767903124	-0.2021166174672586	0.5564224574856237	-1.945234137182386e-07	-1.116114606653981e-06	9.535715106183705e-07	-2.143872075915724e-08	-2.885830797617826e-07	-3.369434936002396e-07	-2.565858630030009e-07
0.51	-0.4082419977883026	-0.04193691168676692	0.7779225502866309	1.177829310346112	-0.3084094111932452	-0.04291849315856658	-0.3255945322750357	0.6885779929069087	0.6885779929069503	-0.1737413430148783	0.1744848709924698	0.08839991621620433	-0.03731315730813045	-0.6229280379124398	-0.2008470416565259	-0.4325506338685735	2.092734304745907	-0.02530158874550156	0.6074234623259483	-0.6189362439094622	1.725569730031582	1.725569730031605	-0.005424890973890876	0.000690650308606234	0.3557085966715165	0.02454427518274606	-0.2304465756604415	0.04178312174954103	-0.02088422811574858	-0.1978703505123856	0.09228989819254453	0.03100628788160732	0.2120794223135077	-9.416069895522686	-14.83946359877596	5.415383063075511	-0.06177180373082625	-612.532014487899	-46.44264832923943	-28.32736029389432	0.5628414926188161	0.5480069072978134	-0.243869278599493	-1.533331119104539	0.5322522115324443	-0.3901710538785715	1.652831689542538	-1.230915529840126	-1.230915529845801	-0.03270350293562637	0.001559411984645413	-0.2470678850798302	0.510686735729734	-2.486472185808116e-07	-9.372424534783204e-07	1.212323971602707e-06	3.917311581392281e-08	-3.179361558684897e-07	-2.916665946704796e-07	-2.799297955698168e-07
0.52	-0.4144425891041709	-0.04391778169660835	0.7735857382311981	1.198677539429346	-0.3086353418093851	-0.03686489871610912	-0.3317000716261321	0.7057699635729791	0.7057699635729611	-0.173795761914398	0.1744915364236447	0.09194433532953458	-0.03704160698349947	-0.6171084261267759	-0.1953034800530641	-0.4347209168712965	2.076618774306124	-0.01989517327819167	0.6031898982777381	-0.602081132901955	1.712585901928023	1.712585901928008	-0.005429664597691642	0.0006583611812934647	0.3531222040839723	0.02975607879569547	-0.2379969402733925	0.04273237372192978	-0.02098435314716863	-0.1989360157916626	0.09056740042150452	0.03170104751215427	0.2180583291947698	-10.17213711468361	-14.90097380110078	5.302008341798714	0.07981749459055135	-616.688603840293	-46.13946157198686	-27.32546462059032	0.595717777632702	0.5600054924647282	-0.1904815768582397	-1.680105987879053	0.5606960335361979	-0.4575516948482956	1.723721899885538	-1.361876257141112	-1.361876257141031	0.05543000025067733	-0.01708744926606407	-0.2658489283765061	0.5450185814371833	-2.878532662294058e-07	-7.69583153500592e-07	1.406464207713517e-06	9.257372055404781e-08	-3.396744890121408e-07	-2.38240429067616e-07	-2.936107937651243e-07
0.53	-0.4205826577531381	-0.04584260818836737	0.7692299502254767	1.219356041386847	-0.3088077183994684	-0.03085575108621848	-0.3376345362337872	0.7228248666246286	0.7228248666247118	-0.1738501873113596	0.1744975304653613	0.09546120524990957	-0.03671845008200303	-0.6108290627092972	-0.189646834832546	-0.4363447515813988	2.058805278805335	-0.01460292848195986	0.5985576979165453	-0.5847440099145997	1.698164002254456	1.69816400225453	-0.005451590613429548	0.0005458627905912652	0.3501957500967877	0.03485144047575337	-0.245308563979549	0.04342365455908763	-0.02107034875090423	-0.2001328925254084	0.08890630545741096	0.03226696703723315	0.2237946026028321	-10.90899083788466	-14.90991449870172	5.180276397828527	0.2870306103185168	-620.7495930875104	-45.78551264769845	-26.32267390710787	0.655447531281506	0.5707656809210075	-0.1346147329251813	-1.873464449894786	0.5099339669413411	-0.4786139157316661	1.748874305018394	-1.516892585371238	-1.516892585357927	-0.03046973092920437	-0.00783162523302997	-0.3144539057630202	0.4881481196363309	-2.918670738011558e-07	-6.533163051478048e-07	1.436462181522262e-06	1.12380420114457e-07	-3.309896005618564e-07	-1.920492169381051e-07	-2.872160236530197e-07
